
<svg width="60px" height="60px" viewBox="0 0 60 60" version="1.1" xmlns="http://www.w3.org/2000/svg" xmlns:xlink="http://www.w3.org/1999/xlink">
    <!-- Generator: Sketch 51.3 (57544) - http://www.bohemiancoding.com/sketch -->
    <desc>Created with Sketch.</desc>
    <defs></defs>
    <g id="Page-1" stroke="none" stroke-width="1" fill="none" fill-rule="evenodd">
        <g id="Group-10">
            <rect id="Rectangle-17-Copy" fill="#D8D8D8" x="0" y="0" width="60" height="60" rx="6"></rect>
            <g id="2359142" transform="translate(11.000000, 11.000000)" fill-rule="nonzero">
                <circle id="Oval" cx="19" cy="19" r="17.1904762"></circle>
                <path d="M19,9.04761905 C18.0006151,9.04761905 17.1904762,9.83393032 17.1904762,10.8039216 L17.1904762,27.1960784 C17.1904762,28.1660697 18.0006151,28.952381 19,28.952381 C19.9993849,28.952381 20.8095238,28.1660697 20.8095238,27.1960784 L20.8095238,10.8039216 C20.8095238,9.83393032 19.9993849,9.04761905 19,9.04761905 Z" id="Shape" fill="#000000"></path>
                <path d="M12.6666667,12.6666667 C11.6672817,12.6666667 10.8571429,13.4399811 10.8571429,14.3939394 L10.8571429,23.6060606 C10.8571429,24.5600189 11.6672817,25.3333333 12.6666667,25.3333333 C13.6660516,25.3333333 14.4761905,24.5600189 14.4761905,23.6060606 L14.4761905,14.3939394 C14.4761905,13.4399811 13.6660516,12.6666667 12.6666667,12.6666667 Z" id="Shape" fill="#000000"></path>
                <path d="M28.952381,17.1904762 L28.952381,20.8095238 C28.952381,21.8089087 29.7625198,22.6190476 30.7619048,22.6190476 C31.7612897,22.6190476 32.5714286,21.8089087 32.5714286,20.8095238 L32.5714286,17.1904762 C32.5714286,16.1910913 31.7612897,15.3809524 30.7619048,15.3809524 C29.7625198,15.3809524 28.952381,16.1910913 28.952381,17.1904762 Z" id="Shape" fill="#000000"></path>
                <path d="M25.3333333,12.6666667 C24.3339484,12.6666667 23.5238095,13.4399811 23.5238095,14.3939394 L23.5238095,23.6060606 C23.5238095,24.5600189 24.3339484,25.3333333 25.3333333,25.3333333 C26.3327183,25.3333333 27.1428571,24.5600189 27.1428571,23.6060606 L27.1428571,14.3939394 C27.1428571,13.4399811 26.3327183,12.6666667 25.3333333,12.6666667 Z" id="Shape" fill="#000000"></path>
                <path d="M7.23809524,15.3809524 C6.23871032,15.3809524 5.42857143,16.1910913 5.42857143,17.1904762 L5.42857143,20.8095238 C5.42857143,21.8089087 6.23871032,22.6190476 7.23809524,22.6190476 C8.23748016,22.6190476 9.04761905,21.8089087 9.04761905,20.8095238 L9.04761905,17.1904762 C9.04761905,16.1910913 8.23748016,15.3809524 7.23809524,15.3809524 Z" id="Shape" fill="#000000"></path>
                <path d="M19,3.16413562e-15 C13.9249219,3.16413562e-15 9.15362109,1.97637109 5.56492187,5.56492188 C1.97637109,9.15362109 0,13.9249219 0,19 C0,24.0750781 1.97637109,28.8463789 5.56492187,32.4350781 C9.15362109,36.0236289 13.9249219,38 19,38 C24.0750781,38 28.8463789,36.0236289 32.4350781,32.4350781 C36.0236289,28.8463789 38,24.0750781 38,19 C38,13.9249219 36.0236289,9.15362109 32.4350781,5.56492188 C28.8463789,1.97637109 24.0750781,0 19,3.16413562e-15 Z M19,34.4375 C10.4877773,34.4375 3.5625,27.5122227 3.5625,19 C3.5625,10.4877773 10.4877773,3.5625 19,3.5625 C27.5122227,3.5625 34.4375,10.4877773 34.4375,19 C34.4375,27.5122227 27.5122227,34.4375 19,34.4375 Z" id="Shape" fill="#000000"></path>
            </g>
        </g>
    </g>
</svg>