
<svg width="42px" height="42px" viewBox="0 0 42 42" version="1.1" xmlns="http://www.w3.org/2000/svg" xmlns:xlink="http://www.w3.org/1999/xlink">
    <!-- Generator: Sketch 51.3 (57544) - http://www.bohemiancoding.com/sketch -->
    <desc>Created with Sketch.</desc>
    <defs>
        <linearGradient x1="0%" y1="0%" x2="101.999998%" y2="100.999999%" id="linearGradient-1">
            <stop stop-color="#2D9AEC" offset="0%"></stop>
            <stop stop-color="#26E9F2" offset="100%"></stop>
        </linearGradient>
    </defs>
    <g id="Symbols" stroke="none" stroke-width="1" fill="none" fill-rule="evenodd">
        <g id="header" transform="translate(-139.000000, -19.000000)" fill-rule="nonzero">
            <g id="2585189" transform="translate(139.000000, 19.000000)">
                <path d="M41.087798,23.7206113 C40.4545168,23.5508063 39.7628293,23.9114162 39.5808019,24.590636 L39.5523371,24.6969487 L36.7051965,23.9340569 C36.8825481,22.982575 36.9762278,22.0020539 36.9762278,20.9999586 C36.9762278,19.9977813 36.8824661,19.0171782 36.7051145,18.0656143 L39.5522551,17.3027225 L39.5807199,17.4090351 C39.7627472,18.088337 40.4545168,18.4488649 41.087716,18.2790599 C41.74413,18.1031846 42.1336964,17.4284766 41.9577394,16.7720615 L41.2638371,14.182413 C41.08788,13.5259979 40.4135832,13.1363489 39.756841,13.3123882 C39.100427,13.4882635 38.7109426,14.1629716 38.8868176,14.8193866 L38.9152824,14.9256993 L36.0673216,15.6888372 C35.4036888,13.8117952 34.3992161,12.0946324 33.1278138,10.6124075 L35.218052,8.52216601 L35.2958997,8.60001379 C35.7762747,9.08047156 36.5554895,9.08063562 37.0360286,8.60001379 C37.5165676,8.11947398 37.5165676,7.34042201 37.0360286,6.8598822 L35.1402864,4.9641371 C34.6598294,4.4835973 33.8806966,4.4835973 33.4001576,4.9641371 C32.9196185,5.4446769 32.9196185,6.22372888 33.4001576,6.70426868 L33.4780052,6.78211646 L31.387767,8.87227592 C29.9053803,7.60078959 28.1881381,6.59623336 26.3110171,5.93268156 L27.0740718,3.08488031 L27.1803843,3.11334519 C27.8623921,3.2961111 28.518642,2.87315732 28.6873803,2.24332042 C28.8632553,1.58690535 28.473771,0.912197279 27.8173569,0.736322008 L25.2277124,0.0424185975 C24.5712164,-0.133538704 23.8965093,0.256110332 23.7207164,0.912443373 C23.5448414,1.56885844 23.9343257,2.24356651 24.5907398,2.41944178 L24.6970523,2.44790667 L23.9341617,5.29505167 C22.9826812,5.11769984 22.0021617,5.02402001 21.000068,5.02402001 C19.9979743,5.02402001 19.0174548,5.11769984 18.0659743,5.29505167 L17.3030837,2.44790667 L17.4093962,2.41944178 C18.0658103,2.24356651 18.4552946,1.56885844 18.2794196,0.912443373 C18.1036267,0.25594627 17.4289197,-0.133702767 16.7725056,0.0422545348 L14.1828611,0.736157945 C13.5264471,0.912033216 13.1369627,1.58674128 13.3128377,2.24315636 C13.481576,2.87307529 14.137826,3.29602907 14.8198338,3.11318113 L14.9261463,3.08471624 L15.6892009,5.9325175 C13.8120799,6.59615133 12.0948377,7.60062553 10.6124511,8.87211186 L8.52221283,6.7819524 L8.60006049,6.70410462 C9.08059954,6.22356482 9.08059954,5.44451284 8.60006049,4.96397304 C8.11960347,4.48343324 7.34047067,4.48343324 6.85993162,4.96397304 L4.96418948,6.85971814 C4.48365043,7.34025794 4.48365043,8.11930992 4.96418948,8.59984972 C5.44472853,9.08047156 6.22394336,9.08030749 6.70431834,8.59984972 L6.782166,8.52200195 L8.87240423,10.6122434 C7.60100192,12.0945504 6.59652928,13.8117132 5.93289649,15.6886731 L3.08493562,14.9255352 L3.11340046,14.8192226 C3.28927546,14.1628075 2.89979109,13.4880994 2.24337704,13.3122242 C1.58663487,13.1361848 0.912255982,13.5258339 0.736380986,14.1822489 L0.0423145965,16.7721435 C-0.133560399,17.4285586 0.255923966,18.1032667 0.912338013,18.2791419 C1.54561925,18.4489469 2.23730673,18.088337 2.41933407,17.4091172 L2.44779891,17.3028045 L5.29493947,18.0656963 C5.11758791,19.0172603 5.0238262,19.9978633 5.0238262,21.0000407 C5.0238262,22.002136 5.11750588,22.982657 5.29485744,23.9341389 L2.44771688,24.6970307 L2.41925204,24.5907181 C2.2372247,23.9114162 1.54545519,23.5508883 0.912255982,23.7206933 C0.255841935,23.8965686 -0.133642431,24.5712766 0.0422325652,25.2276917 L0.736134892,27.8173402 C0.91209192,28.4737553 1.58638878,28.8634043 2.24313095,28.687365 C2.899545,28.5114897 3.28902936,27.8367816 3.11315437,27.1803666 L3.08468952,27.0740539 L5.93248633,26.310998 C6.59611913,28.188122 7.60059176,29.9053669 8.87207611,31.3877559 L6.78183787,33.4779973 L6.70399022,33.4001496 C6.22361523,32.9196918 5.44440041,32.9195277 4.96386135,33.4001496 C4.4833223,33.8806894 4.4833223,34.6597414 4.96386135,35.1402812 L6.8596035,37.0360263 C7.34006052,37.5165661 8.11919331,37.5165661 8.59973236,37.0360263 C9.08027141,36.5554865 9.08027141,35.7764345 8.59973236,35.2958947 L8.52188471,35.2180469 L10.6121229,33.1278874 C12.0945096,34.3993738 13.8117518,35.40393 15.6888728,36.0674818 L14.9258181,38.9152831 L14.8195057,38.8868182 C14.1374979,38.7040523 13.4812479,39.127006 13.3125096,39.7568429 C13.1366346,40.413258 13.526119,41.0879661 14.182533,41.2638414 L16.7721775,41.9577448 C17.4286736,42.1337021 18.1033806,41.744053 18.2791735,41.08772 C18.4550485,40.4313049 18.0655642,39.7565968 17.4091501,39.5807216 L17.3028376,39.5522567 L18.0657282,36.7051117 C19.0172087,36.8824635 19.9977282,36.9761434 20.9998219,36.9761434 C22.0019156,36.9761434 22.9824351,36.8824635 23.9339156,36.7051117 L24.6968062,39.5522567 L24.5904937,39.5807216 C23.9340797,39.7565968 23.5445953,40.4313049 23.7204703,41.08772 C23.8963453,41.744053 24.5709703,42.1337021 25.2274663,41.9577448 L27.8171108,41.2638414 C28.4735249,41.0879661 28.8630092,40.413258 28.6871342,39.7568429 C28.518396,39.126924 27.862146,38.7039702 27.1801382,38.8868182 L27.0738257,38.9152831 L26.310771,36.0674818 C28.1878921,35.403848 29.9051342,34.3993738 31.3875209,33.1278874 L33.4777591,35.2180469 L33.3999115,35.2958947 C32.9193724,35.7764345 32.9193724,36.5554865 33.3999115,37.0360263 C33.8803685,37.5165661 34.6595013,37.5165661 35.1400403,37.0360263 L37.0357825,35.1402812 C37.5163215,34.6597414 37.5163215,33.8806894 37.0357825,33.4001496 C36.5552434,32.9195277 35.7760286,32.9196918 35.2956536,33.4001496 L35.2178059,33.4779973 L33.1275677,31.3877559 C34.3990521,29.9053669 35.4036067,28.188122 36.0671575,26.310998 L38.9149543,27.0740539 L38.8864895,27.1803666 C38.7106145,27.8367816 39.1000988,28.5114897 39.7565129,28.687365 C40.413255,28.8634043 41.0876339,28.4737553 41.2635089,27.8173402 L41.9574113,25.2276917 C42.1336964,24.5711946 41.744212,23.8964865 41.087798,23.7206113 Z M21.000068,34.5152841 C13.5477752,34.5152841 7.48484567,28.4523451 7.48484567,21.0000407 C7.48484567,13.5477362 13.5477752,7.48479723 21.000068,7.48479723 C28.4523608,7.48479723 34.5152903,13.5477362 34.5152903,21.0000407 C34.5152903,28.4523451 28.4523608,34.5152841 21.000068,34.5152841 Z" id="Shape" fill="url(#linearGradient-1)"></path>
                <circle id="Oval" fill="#FB655E" cx="21" cy="11" r="1"></circle>
                <circle id="Oval" fill="#FB655E" cx="21" cy="30" r="1"></circle>
                <circle id="Oval" fill="#FB655E" cx="18" cy="23" r="1"></circle>
                <circle id="Oval" fill="#FB655E" cx="23" cy="23" r="1"></circle>
                <circle id="Oval" fill="#FB655E" cx="23" cy="18" r="1"></circle>
                <circle id="Oval" fill="#FB655E" cx="18" cy="18" r="1"></circle>
                <circle id="Oval" fill="#FB655E" cx="30" cy="21" r="1"></circle>
                <circle id="Oval" fill="#FB655E" cx="12" cy="21" r="1"></circle>
                <circle id="Oval" fill="#FB655E" cx="27" cy="14" r="1"></circle>
                <circle id="Oval" fill="#FB655E" cx="14" cy="27" r="1"></circle>
                <circle id="Oval" fill="#FB655E" cx="27" cy="27" r="1"></circle>
                <circle id="Oval" fill="#FB655E" cx="14" cy="14" r="1"></circle>
            </g>
        </g>
    </g>
</svg>