
<svg width="419px" height="419px" viewBox="0 0 419 419" version="1.1" xmlns="http://www.w3.org/2000/svg" xmlns:xlink="http://www.w3.org/1999/xlink">

    <defs>
        <linearGradient x1="0%" y1="0%" x2="101.999998%" y2="100.999999%" id="linearGradient-1">
            <stop stop-color="#2D9AEC" offset="0%"></stop>
            <stop stop-color="#26E9F2" offset="100%"></stop>
        </linearGradient>
        <linearGradient x1="11.6286058%" y1="5.05236951%" x2="58.439217%" y2="73.6993475%" id="linearGradient-2">
            <stop stop-color="#2D77C2" offset="0%"></stop>
            <stop stop-color="#14428F" offset="100%"></stop>
        </linearGradient>
    </defs>
    <g id="Page-1" stroke="none" stroke-width="1" fill="none" fill-rule="evenodd">
        <g id="Desktop-HD-Copy-4" transform="translate(-1021.000000, -210.000000)">
            <g id="2585189" transform="translate(1021.000000, 210.000000)">
                <path d="M409.899699,236.641336 C403.581965,234.94733 396.681559,238.544843 394.865619,245.320869 L394.581649,246.381464 L366.178032,238.77071 C367.947325,229.278545 368.881891,219.496681 368.881891,209.499587 C368.881891,199.501675 367.946507,189.718992 366.177214,180.226009 L394.58083,172.615255 L394.864801,173.675851 C396.68074,180.452695 403.581965,184.04939 409.898881,182.355383 C416.447392,180.600818 420.333781,173.869802 418.5784,167.32128 L411.655898,141.486453 C409.900517,134.937932 403.173604,131.050719 396.621819,132.806921 C390.073307,134.561486 386.187737,141.292502 387.942299,147.841024 L388.22627,148.901619 L359.81447,156.514828 C353.193943,137.7891 343.173132,120.658357 330.489381,105.871399 L351.341995,85.0187514 L352.118618,85.7953756 C356.910931,90.5885139 364.684526,90.5901506 369.478475,85.7953756 C374.272425,81.001419 374.272425,73.2294481 369.478475,68.4354915 L350.566191,49.5231773 C345.77306,44.7292207 338.000283,44.7292207 333.206334,49.5231773 C328.412385,54.3171339 328.412385,62.0891048 333.206334,66.8830614 L333.982957,67.6596856 L313.130342,88.5115146 C298.34177,75.8269248 281.210235,65.8052804 262.483718,59.1855613 L270.096097,30.7753535 L271.156691,31.0593247 C277.96053,32.8826322 284.507405,28.6631647 286.19077,22.3797918 C287.945333,15.83127 284.059763,9.1002538 277.511251,7.34568861 L251.676465,0.423176009 C245.127135,-1.33220755 238.396129,2.55500546 236.642385,9.10270888 C234.887822,15.6512307 238.773393,22.3822469 245.321904,24.1368121 L246.382498,24.4207832 L238.771756,52.8244441 C229.279606,51.0551484 219.497756,50.1205805 209.500678,50.1205805 C199.503601,50.1205805 189.721751,51.0551484 180.229601,52.8244441 L172.618859,24.4207832 L173.679453,24.1368121 C180.227964,22.3822469 184.113535,15.6512307 182.358972,9.10270888 C180.605228,2.55336874 173.874222,-1.33384427 167.325711,0.421539287 L141.490924,7.34405188 C134.942413,9.09861708 131.056842,15.8296333 132.811405,22.3781551 C134.49477,28.6623464 141.041645,32.8818138 147.845485,31.057688 L148.906078,30.7737168 L156.518457,59.1839246 C137.79194,65.8044621 120.660405,75.825288 105.871833,88.5098778 L85.0192185,67.6580489 L85.7958415,66.8814247 C90.5897906,62.0874681 90.5897906,54.3154971 85.7958415,49.5215406 C81.0027108,44.727584 73.2299336,44.727584 68.4359845,49.5215406 L49.5236998,68.4338548 C44.7297507,73.2278114 44.7297507,80.9997823 49.5236998,85.7937389 C54.3176489,90.5885139 62.0912444,90.5868771 66.8835568,85.7937389 L67.6601798,85.0171147 L88.5127946,105.869762 C75.8290429,120.657539 65.8082326,137.788282 59.1877054,156.513191 L30.7759053,148.899982 L31.059876,147.839387 C32.8144385,141.290865 28.9288683,134.559849 22.3803567,132.805284 C15.8285717,131.049082 9.10083944,134.936295 7.34627698,141.484817 L0.422138474,167.322099 C-1.33242398,173.87062 2.55314624,180.601637 9.1016578,182.356202 C15.419392,184.050208 22.3197981,180.452695 24.1357375,173.676669 L24.4197082,172.616074 L52.8233247,180.226827 C51.0540318,189.719811 50.1186471,199.502494 50.1186471,209.500406 C50.1186471,219.497499 51.0532134,229.279364 52.8225064,238.771529 L24.4188899,246.382283 L24.1349192,245.321687 C22.3189798,238.544843 15.4177553,234.948148 9.10083944,236.642154 C2.55232788,238.39672 -1.33324234,245.127736 0.421320115,251.676258 L7.3438219,277.511084 C9.09920272,284.059606 15.8261166,287.946819 22.3779016,286.190617 C28.9264132,284.436052 32.8119834,277.705036 31.0574209,271.156514 L30.7734503,270.095919 L59.1836136,262.483528 C65.8041408,281.210075 75.8249511,298.341636 88.5095211,313.130231 L67.6569064,333.982878 L66.8802834,333.206254 C62.087971,328.413116 54.3143755,328.411479 49.5204264,333.206254 C44.7264773,338.000211 44.7264773,345.772182 49.5204264,350.566138 L68.4327111,369.478452 C73.2258418,374.272409 80.998619,374.272409 85.7925681,369.478452 C90.5865172,364.684496 90.5865172,356.912525 85.7925681,352.118568 L85.0159451,351.341944 L105.86856,330.490115 C120.657132,343.174705 137.788666,353.196349 156.515184,359.816068 L148.902805,388.226276 L147.842211,387.942305 C141.038371,386.118998 134.491497,390.338465 132.808131,396.621838 C131.053569,403.17036 134.939139,409.901376 141.487651,411.655941 L167.322437,418.578454 C173.871767,420.333837 180.602773,416.446624 182.356517,409.898921 C184.111079,403.350399 180.225509,396.619383 173.676998,394.864818 L172.616404,394.580846 L180.227146,366.177186 C189.719296,367.946481 199.501145,368.881049 209.498223,368.881049 C219.495301,368.881049 229.277151,367.946481 238.769301,366.177186 L246.380043,394.580846 L245.319449,394.864818 C238.770938,396.619383 234.885367,403.350399 236.63993,409.898921 C238.394492,416.446624 245.12468,420.333837 251.674009,418.578454 L277.508796,411.655941 C284.057308,409.901376 287.942878,403.17036 286.188315,396.621838 C284.50495,390.337647 277.958075,386.118179 271.154236,387.942305 L270.093642,388.226276 L262.481263,359.816068 C281.20778,353.195531 298.339315,343.174705 313.127887,330.490115 L333.980502,351.341944 L333.203879,352.118568 C328.40993,356.912525 328.40993,364.684496 333.203879,369.478452 C337.997009,374.272409 345.769787,374.272409 350.563736,369.478452 L369.47602,350.566138 C374.269969,345.772182 374.269969,338.000211 369.47602,333.206254 C364.682071,328.411479 356.908476,328.413116 352.116163,333.206254 L351.33954,333.982878 L330.486926,313.130231 C343.171496,298.341636 353.193124,281.210075 359.812833,262.483528 L388.222996,270.095919 L387.939026,271.156514 C386.184463,277.705036 390.070034,284.436052 396.618545,286.190617 C403.17033,287.946819 409.898062,284.059606 411.652625,277.511084 L418.575127,251.676258 C420.333781,245.126917 416.448211,238.395901 409.899699,236.641336 Z M209.500678,344.331049 C135.155186,344.331049 74.6702461,283.846014 74.6702461,209.500406 C74.6702461,135.154797 135.155186,74.6697628 209.500678,74.6697628 C283.846171,74.6697628 344.331111,135.154797 344.331111,209.500406 C344.331111,283.846014 283.846171,344.331049 209.500678,344.331049 Z" id="Shape" fill="url(#linearGradient-1)" fill-rule="nonzero"></path>
                <circle id="Oval-2" fill="url(#linearGradient-2)" cx="210.5" cy="210.5" r="136.5"></circle>
                <circle id="Oval" fill="#FB655E" fill-rule="nonzero" cx="210" cy="109" r="10"></circle>
                <circle id="Oval" fill="#FB655E" fill-rule="nonzero" cx="210" cy="299" r="10"></circle>
                <circle id="Oval" fill="#FB655E" fill-rule="nonzero" cx="179" cy="229" r="10"></circle>
                <circle id="Oval" fill="#FB655E" fill-rule="nonzero" cx="229" cy="229" r="10"></circle>
                <circle id="Oval" fill="#FB655E" fill-rule="nonzero" cx="229" cy="179" r="10"></circle>
                <circle id="Oval" fill="#FB655E" fill-rule="nonzero" cx="179" cy="179" r="10"></circle>
                <circle id="Oval" fill="#FB655E" fill-rule="nonzero" cx="299" cy="210" r="10"></circle>
                <circle id="Oval" fill="#FB655E" fill-rule="nonzero" cx="120" cy="210" r="10"></circle>
                <circle id="Oval" fill="#FB655E" fill-rule="nonzero" cx="269" cy="140" r="10"></circle>
                <circle id="Oval" fill="#FB655E" fill-rule="nonzero" cx="140" cy="269" r="10"></circle>
                <circle id="Oval" fill="#FB655E" fill-rule="nonzero" cx="269" cy="269" r="10"></circle>
                <circle id="Oval" fill="#FB655E" fill-rule="nonzero" cx="140" cy="140" r="10"></circle>
            </g>
        </g>
    </g>
</svg>